<svg width="64" height="64" viewBox="0 0 64 64" xmlns="http://www.w3.org/2000/svg">
  <rect width="64" height="64" fill="none"/>
  <path d="M32 2C18.745 2 8 12.745 8 26c0 6.627 2.686 12.627 7.029 17.029C10.686 48.373 8 54.373 8 61c0 13.255 10.745 24 24 24s24-10.745 24-24c0-6.627-2.686-12.627-7.029-17.029C53.314 38.627 56 32.627 56 26 56 12.745 45.255 2 32 2zm0 4c11.046 0 20 8.954 20 20 0 5.523-2.239 10.523-5.857 14.143C42.523 43.761 37.523 46 32 46s-10.523-2.239-14.143-5.857C14.239 36.523 12 31.523 12 26c0-11.046 8.954-20 20-20zm0 48c-11.046 0-20-8.954-20-20 0-5.523 2.239-10.523 5.857-14.143C21.477 20.239 26.477 18 32 18s10.523 2.239 14.143 5.857C49.761 25.477 52 30.477 52 36c0 11.046-8.954 20-20 20z" fill="#FFFFFF"/>
</svg>